<?xml version="1.0" encoding="UTF-8" standalone="no"?>
<!-- Generator: Adobe Illustrator 27.5.0, SVG Export Plug-In . SVG Version: 6.00 Build 0)  -->

<svg
   version="1.1"
   x="0px"
   y="0px"
   viewBox="0 0 3710 3710"
   style="enable-background:new 0 0 3710 3710;"
   xml:space="preserve"
   id="svg271"
   sodipodi:docname="heroBGDark.svg"
   inkscape:version="1.2.2 (b0a8486541, 2022-12-01)"
   inkscape:export-filename="heroBGDark.svg"
   inkscape:export-xdpi="96"
   inkscape:export-ydpi="96"
   xmlns:inkscape="http://www.inkscape.org/namespaces/inkscape"
   xmlns:sodipodi="http://sodipodi.sourceforge.net/DTD/sodipodi-0.dtd"
   xmlns:xlink="http://www.w3.org/1999/xlink"
   xmlns="http://www.w3.org/2000/svg"
   xmlns:svg="http://www.w3.org/2000/svg"><defs
   id="defs275">
	

		
		
		
		
		
		
		
	</defs><sodipodi:namedview
   id="namedview273"
   pagecolor="#ffffff"
   bordercolor="#999999"
   borderopacity="1"
   inkscape:showpageshadow="2"
   inkscape:pageopacity="0"
   inkscape:pagecheckerboard="0"
   inkscape:deskcolor="#d1d1d1"
   showgrid="false"
   inkscape:zoom="0.14555256"
   inkscape:cx="1855"
   inkscape:cy="1865.3056"
   inkscape:window-width="1366"
   inkscape:window-height="720"
   inkscape:window-x="0"
   inkscape:window-y="25"
   inkscape:window-maximized="1"
   inkscape:current-layer="svg271" />
<g
   id="Background"
   style="display:inline">
	<g
   id="g6"
   style="display:inline">
		<g
   id="g4"
   style="display:inline">
			<rect
   style="display:inline;fill:#1f2937;fill-opacity:1"
   width="3710"
   height="3710"
   id="rect2"
   x="0"
   y="0" />
		</g>
	</g>
</g>
<path
   style="fill:#386c9e;fill-opacity:1"
   d="M 1222.213,434.505 C 1023.285,462.26 844.354,570.021 726.625,732.754 608.896,895.487 562.199,1099.38 598.26,1296.972 711.19,1915.768 -320.24,3183.71 1080.096,3370.365 2480.432,3557.022 3199.822,3052.6 3233.3,2593.35 3265.205,2155.658 3393.579,131.554 1222.213,434.505 Z"
   id="path9" /><g
   id="g75">
			<g
   id="g40">
				<g
   id="g38">
					<linearGradient
   id="SVGID_1_"
   gradientUnits="userSpaceOnUse"
   x1="2096.8506"
   y1="2091.4543"
   x2="3156.0259"
   y2="2091.4543">
						<stop
   offset="0.0036"
   style="stop-color:#E38DDD"
   id="stop11" />
						<stop
   offset="1"
   style="stop-color:#9571F6"
   id="stop13" />
					</linearGradient>
					<path
   style="fill:url(#SVGID_1_)"
   d="m 2283.469,2826.521 c -16.781,-2.64 -50.958,-23.178 -57.661,-32.205 -44.602,-60.074 -135.417,-167.124 -128.593,-245.926 1.165,-13.458 61.753,-24.313 70.537,-36.453 36.949,-16.297 50.778,-19.659 78.294,-52.408 81.234,-96.684 -92.71,-287.221 117.418,-346.725 153.916,-43.585 281.357,12.534 271.465,-224.816 -9.892,-237.35 189.85,-663.862 435.448,-491.724 140.95,98.791 -10.333,296.231 59.443,446.858 66.305,143.135 3.246,257.733 -149.091,338.342 -152.337,80.609 -74,147.961 -34.1,283.348 47.928,162.628 -200.811,184.361 -316.503,184.598 -93.165,0.191 -330.264,63.531 -346.657,177.111 z"
   id="path16" />
					<g
   id="g36">
						<defs
   id="defs19">
							<path
   id="SVGID_00000183949108829287421870000010769429959069957046_"
   d="m 2059.635,2526.945 c 32.998,112.009 61.96,227.346 94.581,340.322 66.238,7.209 144.329,14.076 161.266,-67.14 23.548,-112.916 221.759,-151.227 314.846,-150.922 115.214,0.377 364.324,-21.952 316.311,-184.424 -39.971,-135.257 -118.231,-202.749 34.098,-283.327 152.329,-80.579 215.358,-195.191 149.081,-338.342 -69.747,-150.644 81.494,-347.984 -59.443,-446.852 -245.576,-172.272 -445.41,254.623 -435.409,491.635 10.001,237.012 -117.947,182.293 -271.401,224.651 -209.499,57.829 -37.889,254.49 -116.854,344.847 -61.905,70.834 -108.761,56.296 -187.076,69.552 z" />
						</defs>
						<clipPath
   id="SVGID_00000139290312134495973350000018431873882027234433_">
							<use
   xlink:href="#SVGID_00000183949108829287421870000010769429959069957046_"
   style="overflow:visible"
   id="use21" />
						</clipPath>
						<g
   clip-path="url(#SVGID_00000139290312134495973350000018431873882027234433_)"
   id="g34">
							<path
   style="fill:#fcfdfe"
   d="m 2163.441,2678.238 -1.519,-3.34 c 254.586,-115.507 466.92,-305.883 614.045,-550.549 139.993,-232.801 219.383,-510.081 229.592,-801.865 l 3.668,0.129 c -10.234,292.405 -89.806,570.293 -230.115,803.628 -147.512,245.304 -360.408,436.182 -615.671,551.997 z"
   id="path24" />
							<path
   style="fill:#fcfdfe"
   d="m 2974.292,2530.148 c -143.231,-51.406 -384.951,-59.351 -538.827,-17.721 l -0.96,-3.539 c 154.5,-41.8 397.198,-33.81 541.027,17.808 z"
   id="path26" />
							<path
   style="fill:#fcfdfe"
   d="m 2262.392,2631.968 -2.379,-2.79 c 63.01,-53.804 96.401,-137.398 99.241,-248.459 2.084,-81.435 -12.003,-175.472 -41.869,-279.495 l 3.525,-1.014 c 29.97,104.385 44.104,198.792 42.012,280.604 -2.869,112.144 -36.693,196.644 -100.53,251.154 z"
   id="path28" />
							<path
   style="fill:#fcfdfe"
   d="m 2797.734,2092.353 -2.522,-2.665 c 113.576,-107.544 276.121,-132.67 392.48,-134.812 l 0.064,3.668 c -115.706,2.129 -277.298,27.07 -390.022,133.809 z"
   id="path30" />
							<path
   style="fill:#fcfdfe"
   d="m 2938.719,1763.231 -3.646,-0.365 c 7.54,-75.248 -0.423,-228.728 -138.51,-411.212 l 2.923,-2.214 c 138.843,183.482 146.831,338.01 139.233,413.791 z"
   id="path32" />
						</g>
					</g>
				</g>
			</g>
			<g
   id="g73">
				<g
   id="g71">
					<defs
   id="defs43">
						<path
   id="SVGID_00000013151100237711770060000015172870949735766160_"
   d="m 2453.295,2547.553 c -91.171,-12.276 -182.276,-26.645 -273.24,-43.101 -1.46,1.353 -33.698,-196.105 59.005,-300.993 183.368,-203.239 56.014,-382.093 19.012,-488.539 -58.972,-150.02 -31.915,-333.558 134.501,-301.267 162.081,27.581 182.562,-305.657 151.528,-561.808 -25.342,-124.546 90.601,-277.447 207.721,-313.493 119.526,-39.811 240.227,37.232 279.952,285.618 59.06,287.433 -149.085,463.734 -225.186,609.128 -74.883,142.732 104.726,255.293 -37.188,382.678 -119.296,113.105 -270.384,195.208 -213.05,334.762 58.839,137.948 46.535,251.463 -103.055,397.015 z" />
					</defs>
					<clipPath
   id="SVGID_00000106857559846265453950000011112065894004446872_">
						<use
   xlink:href="#SVGID_00000013151100237711770060000015172870949735766160_"
   style="overflow:visible"
   id="use45" />
					</clipPath>
					
						<linearGradient
   id="SVGID_00000154415061520622784240000006186006404359465128_"
   gradientUnits="userSpaceOnUse"
   x1="2343.1841"
   y1="577.27472"
   x2="1689.6868"
   y2="2434.585"
   gradientTransform="matrix(-0.8734,-0.487,-0.487,0.8734,5080.3042,1215.7589)">
						<stop
   offset="0"
   style="stop-color:#FF9085"
   id="stop48" />
						<stop
   offset="1"
   style="stop-color:#FB6FBB"
   id="stop50" />
					</linearGradient>
					
						<path
   style="fill:url(#SVGID_00000154415061520622784240000006186006404359465128_)"
   d="m 2453.295,2547.553 c -91.171,-12.276 -182.276,-26.645 -273.24,-43.101 -1.46,1.353 -33.698,-196.105 59.005,-300.993 183.368,-203.239 56.014,-382.093 19.012,-488.539 -58.397,-149.915 -30.631,-313.361 122.623,-317.637 169.936,-8.071 197.335,-289.839 163.406,-545.438 -25.342,-124.546 90.601,-277.447 207.721,-313.493 119.526,-39.811 240.227,37.232 279.952,285.618 59.06,287.433 -149.085,463.734 -225.186,609.128 -74.883,142.732 104.726,255.293 -37.188,382.678 -119.296,113.105 -270.384,195.208 -213.05,334.762 58.839,137.948 46.535,251.463 -103.055,397.015 z"
   clip-path="url(#SVGID_00000106857559846265453950000011112065894004446872_)"
   id="path53" />
					<g
   clip-path="url(#SVGID_00000106857559846265453950000011112065894004446872_)"
   id="g69">
						<path
   style="fill:#fcfdfe"
   d="m 2331.717,2560.781 -3.664,-0.012 c -0.05,-1.757 81.829,-418.917 226.891,-825.852 19.908,-65.834 41.601,-132.252 62.58,-196.482 56.179,-172.001 114.275,-349.859 140.738,-526.568 29.58,-197.521 16.022,-374.931 -41.447,-542.368 l 3.467,-1.189 c 57.669,168.007 71.277,345.985 41.608,544.1 -26.51,177.014 -84.652,355.019 -140.878,527.165 -20.976,64.212 -42.661,130.608 -62.587,196.489 -138.327,388.059 -225.68,811.72 -226.708,824.717 z"
   id="path55" />
						<path
   style="fill:#fcfdfe"
   d="m 2722.288,1206.048 -2.758,-2.421 c 100.09,-113.965 220.562,-275.659 285.28,-362.526 52.06,-69.873 52.4,-69.796 54.535,-69.488 l -0.516,3.632 0.258,-1.816 0.767,1.626 c -2.654,1.868 -24.476,31.156 -52.103,68.236 -64.751,86.91 -185.276,248.682 -285.463,362.757 z"
   id="path57" />
						<path
   style="fill:#fcfdfe"
   d="m 2751.097,1051.074 c -22.566,-128.952 -76.808,-213.29 -118.336,-261.333 -45.881,-53.081 -87.79,-75.917 -92.049,-76.378 0.014,0.007 0.423,0.032 0.863,-0.27 l -2.078,-3.023 c 0.917,-0.627 2.002,-0.489 4.467,0.544 11.287,4.742 53.575,30.475 98.281,84.675 56.312,68.263 95.201,156.493 112.462,255.15 z"
   id="path59" />
						<path
   style="fill:#fcfdfe"
   d="m 2472.584,2000.913 -3.646,-0.39 c 12.848,-120.376 -16.738,-249.33 -87.929,-383.28 -37.13,-69.859 -84.229,-138.166 -139.989,-203.028 -4.041,-4.699 -5.462,-6.365 -5.914,-7.124 l 3.152,-1.877 c 0.33,0.543 2.629,3.22 5.545,6.61 55.936,65.066 103.188,133.601 140.444,203.698 71.541,134.607 101.264,264.271 88.337,385.391 z"
   id="path61" />
						<path
   style="fill:#fcfdfe"
   d="m 2512.057,1873.856 -3.145,-1.891 c 107.028,-177.709 336.942,-192.68 338.848,-192.08 l 1.386,1.701 -1.236,1.816 -0.598,-1.708 -0.136,1.795 c 0,0 -0.011,0 -0.018,0 -3.012,0 -229.667,15.302 -335.101,190.367 z m 334.642,-193.913 0.605,1.725 z"
   id="path63" />
						<path
   style="fill:#fcfdfe"
   d="m 2346.084,2492.71 -3.668,-0.09 c 1.286,-52.357 -18.508,-141.34 -120.11,-267.918 -5.509,-6.861 -5.509,-6.861 -5.376,-7.893 l 3.639,0.477 -1.82,-0.238 1.673,-0.708 c 0.29,0.521 2.353,3.091 4.742,6.066 102.297,127.441 122.22,217.334 120.92,270.304 z"
   id="path65" />
						<path
   style="fill:#fcfdfe"
   d="m 2367.991,2393.846 -3.532,-0.978 c 11.05,-39.944 55.502,-118.487 229.04,-195.712 2.396,-1.065 3.94,-1.75 4.488,-2.04 l 1.719,3.242 c -0.58,0.306 -2.196,1.03 -4.718,2.151 -172.161,76.611 -216.115,154.016 -226.997,193.337 z"
   id="path67" />
					</g>
				</g>
			</g>
		</g><g
   id="g120">
			<g
   id="g114">
				
					<linearGradient
   id="SVGID_00000109001765070179675220000017116215773498633917_"
   gradientUnits="userSpaceOnUse"
   x1="2655.325"
   y1="4588.8828"
   x2="893.54413"
   y2="6187.6802"
   gradientTransform="rotate(-90,-8.5978,3747.2042)">
					<stop
   offset="0.0036"
   style="stop-color:#26264F"
   id="stop77" />
					<stop
   offset="1"
   style="stop-color:#444B8C"
   id="stop79" />
				</linearGradient>
				<path
   style="fill:url(#SVGID_00000109001765070179675220000017116215773498633917_)"
   d="m 2544.053,3019.242 c 0,48.863 -34.669,90.641 -77.419,93.137 l -1649.128,96.255 c -48.977,2.859 -88.963,-37.565 -88.963,-90.119 V 752.84 c 0,-52.556 39.985,-93.694 88.963,-91.709 l 1649.128,66.831 c 42.75,1.733 77.419,42.892 77.419,91.757 z"
   id="path82" />
				
					<linearGradient
   id="SVGID_00000028301108145236243330000000929855551458362017_"
   gradientUnits="userSpaceOnUse"
   x1="812.28497"
   y1="1936.2983"
   x2="2821.53"
   y2="1880.3134">
					<stop
   offset="0"
   style="stop-color:#444B8C"
   id="stop84" />
					<stop
   offset="0.9964"
   style="stop-color:#26264F"
   id="stop86" />
				</linearGradient>
				<path
   style="fill:url(#SVGID_00000028301108145236243330000000929855551458362017_)"
   d="m 2592.472,3019.242 c 0,48.863 -34.669,90.641 -77.419,93.137 l -1649.129,96.255 c -48.977,2.859 -88.962,-37.565 -88.962,-90.119 V 752.84 c 0,-52.556 39.985,-93.694 88.962,-91.709 l 1649.129,66.831 c 42.75,1.733 77.419,42.892 77.419,91.757 z"
   id="path89" />
				
					<linearGradient
   id="SVGID_00000173137369561490809560000012194760813345031329_"
   gradientUnits="userSpaceOnUse"
   x1="1324.4037"
   y1="5990.0615"
   x2="2319.7078"
   y2="4773.5786"
   gradientTransform="rotate(-90,-8.5978,3747.2042)">
					<stop
   offset="0"
   style="stop-color:#444B8C"
   id="stop91" />
					<stop
   offset="0.9964"
   style="stop-color:#26264F"
   id="stop93" />
				</linearGradient>
				<path
   style="fill:url(#SVGID_00000173137369561490809560000012194760813345031329_)"
   d="m 818.451,754.368 v 2361.876 c 0,28.09 21.277,49.657 47.474,48.173 l 1304.283,-73.889 344.844,-19.536 c 22.906,-1.297 41.443,-23.586 41.443,-49.784 V 818.394 c 0,-26.199 -18.536,-48.156 -41.443,-49.045 L 2157.757,755.483 865.924,705.348 c -26.197,-1.017 -47.473,20.93 -47.473,49.02 z"
   id="path96" />
				<path
   style="fill:#d8dee8"
   d="m 2533.639,2919.345 c 0,9.745 -7.812,18.073 -17.417,18.564 l -1651.634,84.454 c -10.975,0.561 -19.914,-7.465 -19.914,-17.894 V 754.415 c 0,-10.429 8.939,-18.578 19.914,-18.165 l 1651.634,62.114 c 9.605,0.361 17.417,8.585 17.417,18.33 z"
   id="path98" />
				
					<linearGradient
   id="SVGID_00000095340141697663087080000000933183375497353374_"
   gradientUnits="userSpaceOnUse"
   x1="1732.4393"
   y1="2921.0669"
   x2="1699.2155"
   y2="3174.0781">
					<stop
   offset="0"
   style="stop-color:#444B8C"
   id="stop100" />
					<stop
   offset="0.9964"
   style="stop-color:#26264F"
   id="stop102" />
				</linearGradient>
				<path
   style="fill:url(#SVGID_00000095340141697663087080000000933183375497353374_)"
   d="m 1884.313,3065.775 -335.374,18.444 c -17.931,0.986 -32.485,-11.447 -32.485,-27.771 v -1.226 c 0,-16.324 14.554,-30.323 32.485,-31.266 l 335.374,-17.638 c 17.429,-0.917 31.541,11.364 31.541,27.428 v 1.206 c 0,16.065 -14.112,29.864 -31.541,30.823 z"
   id="path105" />
				
					<linearGradient
   id="SVGID_00000044868476045475367410000015008362207762708116_"
   gradientUnits="userSpaceOnUse"
   x1="1709.2262"
   y1="729.02148"
   x2="1728.0427"
   y2="749.75623">
					<stop
   offset="0"
   style="stop-color:#FF9085"
   id="stop107" />
					<stop
   offset="1"
   style="stop-color:#FB6FBB"
   id="stop109" />
				</linearGradient>
				<path
   style="fill:url(#SVGID_00000044868476045475367410000015008362207762708116_)"
   d="m 1734.92,739.073 c 0,8.684 -7.682,15.431 -17.165,15.069 -9.49,-0.362 -17.189,-7.706 -17.189,-16.401 0,-8.696 7.698,-15.442 17.189,-15.068 9.483,0.373 17.165,7.716 17.165,16.4 z"
   id="path112" />
			</g>
			<g
   style="opacity:0.3"
   id="g118">
				<path
   style="fill:#ffffff"
   d="m 2155.971,2864.419 c -6.723,-144.15 153.552,-228.694 138.155,-432.046 -1.389,-18.347 -15.712,-175.712 -142.365,-282.378 -113.733,-95.785 -209.328,-59.747 -419.83,-136.147 -147.532,-53.545 -313.387,-113.743 -380.468,-234.521 -133.214,-239.849 247.451,-479.418 169.538,-789.924 -22.326,-88.974 -85.361,-198.036 -251.85,-311.931 L 865.924,661.131 c -48.977,-1.985 -88.962,39.152 -88.962,91.708 v 2365.672 c 0,52.556 39.985,92.98 88.962,90.121 l 1502.587,-87.702 c -160.045,-92.519 -209.037,-181.405 -212.54,-256.511 z"
   id="path116" />
			</g>
		</g><g
   id="g190">
			<g
   id="g143">
				
					<linearGradient
   id="SVGID_00000010290839695263257920000004238823230061259689_"
   gradientUnits="userSpaceOnUse"
   x1="1391.3596"
   y1="3592.9041"
   x2="2000.0376"
   y2="-269.55029">
					<stop
   offset="0.0036"
   style="stop-color:#F36F56"
   id="stop122" />
					<stop
   offset="1"
   style="stop-color:#FFC444"
   id="stop124" />
				</linearGradient>
				<polygon
   style="fill:url(#SVGID_00000010290839695263257920000004238823230061259689_)"
   points="2415.688,2842.278 931.678,2951.724 939.651,709.888 2415.688,745.159 "
   id="polygon127" />
				<polygon
   style="fill:#ffffff"
   points="1703.157,1024.296 1031.153,1017.32 1031.743,830.524 1703.451,842.964 "
   id="polygon129" />
				<polygon
   style="fill:#ffffff"
   points="1420.545,1497.427 1204.871,1499.742 1205.514,1264.139 1421.066,1264.167 "
   id="polygon131" />
				<polygon
   style="fill:#ffffff"
   points="2248.133,1375.525 1489.67,1380.134 1489.911,1263.835 2248.171,1263.182 "
   id="polygon133" />
				<polygon
   style="fill:#ffffff"
   points="1419.493,1968.236 1203.575,1975.289 1204.219,1739.174 1420.015,1734.475 "
   id="polygon135" />
				<polygon
   style="fill:#ffffff"
   points="2247.977,1828.886 1488.695,1849.481 1488.937,1732.932 2248.015,1716.31 "
   id="polygon137" />
				<polygon
   style="fill:#ffffff"
   points="1418.439,2440.06 1202.276,2451.87 1202.921,2215.242 1418.962,2205.795 "
   id="polygon139" />
				<polygon
   style="fill:#ffffff"
   points="2247.82,2283.186 1487.718,2319.835 1487.961,2203.036 2247.859,2170.377 "
   id="polygon141" />
			</g>
			<path
   style="opacity:0.3;fill:#ffffff"
   d="m 1823.175,2882.224 -890.678,65.696 7.556,-2241.833 550.186,13.148 c -107.58,185.033 -238.854,554.647 136.556,901.057 381.535,352.06 534.488,890.284 196.38,1261.932 z"
   id="path145" />
			
				<linearGradient
   id="SVGID_00000040576543512324247480000015417828617323144856_"
   gradientUnits="userSpaceOnUse"
   x1="-94.668503"
   y1="5521.9556"
   x2="1804.8379"
   y2="1491.2898">
				<stop
   offset="0.0036"
   style="stop-color:#F36F56"
   id="stop147" />
				<stop
   offset="1"
   style="stop-color:#FFC444"
   id="stop149" />
			</linearGradient>
			<polygon
   style="fill:url(#SVGID_00000040576543512324247480000015417828617323144856_)"
   points="991.404,585.544 1541.589,598.691 2467.039,620.803 2467.039,2717.946 1874.525,2761.681 983.847,2827.377 "
   id="polygon152" />
			<path
   style="opacity:0.5;fill:#ffffff"
   d="m 1874.525,2761.681 -890.678,65.696 7.556,-2241.833 550.186,13.148 c -107.58,185.033 -238.854,554.647 136.556,901.057 381.536,352.06 534.488,890.284 196.38,1261.932 z"
   id="path154" />
			
				<linearGradient
   id="SVGID_00000053522330781467492000000002246526914013386406_"
   gradientUnits="userSpaceOnUse"
   x1="1084.1243"
   y1="803.06293"
   x2="1756.4227"
   y2="803.06293">
				<stop
   offset="0"
   style="stop-color:#FF9085"
   id="stop156" />
				<stop
   offset="1"
   style="stop-color:#FB6FBB"
   id="stop158" />
			</linearGradient>
			<polygon
   style="opacity:0.6;fill:url(#SVGID_00000053522330781467492000000002246526914013386406_)"
   points="1756.128,899.949 1084.124,892.972 1084.715,706.177 1756.423,718.617 "
   id="polygon161" />
			
				<linearGradient
   id="SVGID_00000041277358913861547100000018350999604575579277_"
   gradientUnits="userSpaceOnUse"
   x1="1272.9775"
   y1="1273.1365"
   x2="1489.172"
   y2="1273.1365">
				<stop
   offset="0"
   style="stop-color:#FF9085"
   id="stop163" />
				<stop
   offset="1"
   style="stop-color:#FB6FBB"
   id="stop165" />
			</linearGradient>
			<polygon
   style="opacity:0.6;fill:url(#SVGID_00000041277358913861547100000018350999604575579277_)"
   points="1488.651,1388.623 1272.978,1390.938 1273.62,1155.335 1489.172,1155.363 "
   id="polygon168" />
			<polygon
   style="opacity:0.5;fill:#ffffff"
   points="2316.239,1266.721 1557.776,1271.33 1558.017,1155.031 2316.277,1154.378 "
   id="polygon170" />
			
				<linearGradient
   id="SVGID_00000044171173735329628430000003793516470255254709_"
   gradientUnits="userSpaceOnUse"
   x1="1271.681"
   y1="1746.0781"
   x2="1488.1213"
   y2="1746.0781">
				<stop
   offset="0"
   style="stop-color:#FF9085"
   id="stop172" />
				<stop
   offset="1"
   style="stop-color:#FB6FBB"
   id="stop174" />
			</linearGradient>
			<polygon
   style="opacity:0.6;fill:url(#SVGID_00000044171173735329628430000003793516470255254709_)"
   points="1487.599,1859.432 1271.681,1866.485 1272.325,1630.37 1488.121,1625.671 "
   id="polygon177" />
			<polygon
   style="opacity:0.5;fill:#ffffff"
   points="2316.083,1720.082 1556.801,1740.677 1557.043,1624.128 2316.121,1607.506 "
   id="polygon179" />
			
				<linearGradient
   id="SVGID_00000063629158289280660770000005597642316411563692_"
   gradientUnits="userSpaceOnUse"
   x1="1270.3817"
   y1="2220.0286"
   x2="1487.0684"
   y2="2220.0286">
				<stop
   offset="0"
   style="stop-color:#FF9085"
   id="stop181" />
				<stop
   offset="1"
   style="stop-color:#FB6FBB"
   id="stop183" />
			</linearGradient>
			<polygon
   style="opacity:0.6;fill:url(#SVGID_00000063629158289280660770000005597642316411563692_)"
   points="1486.545,2331.256 1270.382,2343.066 1271.027,2106.438 1487.068,2096.991 "
   id="polygon186" />
			<polygon
   style="opacity:0.5;fill:#ffffff"
   points="2315.926,2174.382 1555.824,2211.031 1556.067,2094.232 2315.965,2061.573 "
   id="polygon188" />
		</g><g
   id="g220">
			
				<linearGradient
   id="SVGID_00000106134882377143018450000015948891645873343671_"
   gradientUnits="userSpaceOnUse"
   x1="10575.57"
   y1="-556.77722"
   x2="10833.53"
   y2="-393.95129"
   gradientTransform="matrix(0.1014,0.9949,0.9949,-0.1014,1778.6556,-7410.6538)">
				<stop
   offset="0"
   style="stop-color:#AB316D"
   id="stop192" />
				<stop
   offset="1"
   style="stop-color:#792D3D"
   id="stop194" />
			</linearGradient>
			<path
   style="fill:url(#SVGID_00000106134882377143018450000015948891645873343671_)"
   d="m 3077.891,3194.192 c 12.156,-37.105 8.536,-72.601 -10.86,-106.488 l -1474.452,150.37 10.86,106.488 z"
   id="path197" />
			
				<linearGradient
   id="SVGID_00000039831490315820937900000017484947987938070407_"
   gradientUnits="userSpaceOnUse"
   x1="10775.711"
   y1="-540.00989"
   x2="10598.17"
   y2="-514.38531"
   gradientTransform="matrix(0.1014,0.9949,0.9949,-0.1014,1778.6556,-7410.6538)">
				<stop
   offset="0"
   style="stop-color:#AB316D"
   id="stop199" />
				<stop
   offset="1"
   style="stop-color:#792D3D"
   id="stop201" />
			</linearGradient>
			<path
   style="fill:url(#SVGID_00000039831490315820937900000017484947987938070407_)"
   d="m 3080.448,3119.442 c 3.644,13.116 5.057,26.46 4.238,40.031 l -1484.681,151.413 -4.084,-40.047 z"
   id="path204" />
			
				<linearGradient
   id="SVGID_00000056394148381267007890000015407002246150338209_"
   gradientUnits="userSpaceOnUse"
   x1="10661.806"
   y1="-1602.7101"
   x2="10574.229"
   y2="-729.13593"
   gradientTransform="matrix(0.1014,0.9949,0.9949,-0.1014,1778.6556,-7410.6538)">
				<stop
   offset="0"
   style="stop-color:#FFC444"
   id="stop206" />
				<stop
   offset="0.9964"
   style="stop-color:#F36F56"
   id="stop208" />
			</linearGradient>
			<path
   style="fill:url(#SVGID_00000056394148381267007890000015407002246150338209_)"
   d="m 1603.439,3344.562 c 16.933,-37.185 13.549,-72.701 -10.86,-106.488 l -328.689,83.821 c -3.758,1.109 -3.198,6.596 0.706,6.924 z"
   id="path211" />
			
				<linearGradient
   id="SVGID_00000023994433967993936140000014069687097980654773_"
   gradientUnits="userSpaceOnUse"
   x1="10632.81"
   y1="-1679.062"
   x2="10625.491"
   y2="-1364.3611"
   gradientTransform="matrix(0.1014,0.9949,0.9949,-0.1014,1778.6556,-7410.6538)">
				<stop
   offset="0"
   style="stop-color:#AB316D"
   id="stop213" />
				<stop
   offset="1"
   style="stop-color:#792D3D"
   id="stop215" />
			</linearGradient>
			<path
   style="fill:url(#SVGID_00000023994433967993936140000014069687097980654773_)"
   d="m 1263.89,3321.895 127.772,-32.584 c 5.377,14.897 6.923,30.109 4.708,45.63 l -131.774,-6.123 c -3.904,-0.327 -4.464,-5.815 -0.706,-6.923 z"
   id="path218" />
		</g><g
   id="g243">
			
				<linearGradient
   id="SVGID_00000175294256895583681550000007314882397378490524_"
   gradientUnits="userSpaceOnUse"
   x1="957.13678"
   y1="2633.0349"
   x2="808.59473"
   y2="3821.3745">
				<stop
   offset="0"
   style="stop-color:#444B8C"
   id="stop222" />
				<stop
   offset="0.9964"
   style="stop-color:#26264F"
   id="stop224" />
			</linearGradient>
			<path
   style="fill:url(#SVGID_00000175294256895583681550000007314882397378490524_)"
   d="m 1260.274,3060.831 c 36.682,18.624 82.765,1.524 102.931,-38.194 20.166,-39.718 6.777,-87.015 -29.905,-105.638 -1.9,-0.966 -3.839,-1.776 -5.785,-2.552 6.816,-21.978 11.954,-44.128 15.399,-66.286 2.103,-0.01 4.213,-0.041 6.357,-0.232 41.85,-3.731 75.065,-42.186 74.189,-85.897 -0.876,-43.709 -35.513,-76.12 -77.363,-72.39 -2.188,0.196 -4.336,0.542 -6.472,0.921 -4.372,-21.661 -10.361,-42.821 -17.918,-63.3 1.925,-1.126 3.841,-2.29 5.712,-3.601 35.804,-25.084 47.252,-74.595 25.568,-110.583 -21.684,-35.988 -68.289,-44.826 -104.093,-19.743 -1.835,1.287 -3.561,2.675 -5.266,4.083 -14.143,-15.633 -29.652,-30.121 -46.434,-43.344 1.179,-1.935 2.335,-3.895 3.38,-5.952 20.166,-39.719 46.518,-83.105 9.549,-101.152 -85.52,-41.749 -122.219,-6.01 -142.385,33.708 -1.044,2.057 -1.944,4.147 -2.81,6.241 -20.577,-5.746 -41.426,-9.719 -62.393,-11.911 0.132,-2.208 0.233,-4.42 0.19,-6.661 -0.878,-43.708 12.091,-67.362 -29.916,-68.178 -91.605,-1.781 -122.514,37.979 -121.637,81.688 0.046,2.285 0.237,4.519 0.463,6.737 -20.993,5.983 -41.609,13.634 -61.677,22.888 -0.954,-1.949 -1.944,-3.887 -3.076,-5.77 -21.684,-35.988 -68.289,-44.825 -104.094,-19.74 -35.805,25.086 -47.252,74.594 -25.568,110.582 1.111,1.844 2.328,3.568 3.563,5.269 -15.855,15.858 -30.706,33.077 -44.426,51.548 -1.775,-1.113 -3.574,-2.201 -5.474,-3.165 -36.682,-18.624 -82.766,-1.524 -102.932,38.194 -20.166,39.718 -6.777,87.015 29.905,105.639 1.9,0.965 3.841,1.775 5.786,2.551 -6.815,21.978 -11.954,44.128 -15.4,66.286 -2.103,0.01 -4.212,0.041 -6.355,0.23 -41.851,3.733 -75.066,42.189 -74.19,85.899 0.876,43.71 35.514,76.118 77.364,72.387 2.186,-0.195 4.336,-0.538 6.471,-0.92 4.372,21.662 10.361,42.822 17.918,63.301 -1.924,1.126 -3.841,2.29 -5.711,3.602 -35.805,25.083 -47.252,74.594 -25.568,110.582 21.684,35.989 93.473,52.708 129.277,27.623 1.835,-1.286 -21.624,-10.555 -19.917,-11.964 14.143,15.633 29.653,30.121 46.433,43.344 -1.179,1.935 -2.334,3.895 -3.379,5.952 -20.166,39.719 -6.777,87.015 29.904,105.638 36.682,18.624 82.766,1.523 102.932,-38.195 1.044,-2.057 1.945,-4.147 2.81,-6.24 20.578,5.745 41.427,9.718 62.393,11.91 -0.13,2.208 -0.232,4.42 -0.188,6.661 0.876,43.708 35.513,76.118 77.363,72.387 41.85,-3.731 75.066,-42.188 74.189,-85.897 -0.047,-2.284 -0.237,-4.518 -0.463,-6.737 20.994,-5.983 41.61,-13.634 61.677,-22.888 0.953,1.949 1.944,3.887 3.076,5.767 21.684,35.988 68.288,44.828 104.093,19.742 35.805,-25.086 47.252,-74.594 25.569,-110.584 -1.111,-1.842 -2.328,-3.566 -3.564,-5.267 15.856,-15.857 30.706,-33.077 44.427,-51.548 1.771,1.117 3.57,2.205 5.471,3.169 z m -457.271,5.803 c -133.182,-67.619 -181.793,-239.34 -108.575,-383.55 73.218,-144.21 240.539,-206.298 373.721,-138.678 133.182,67.62 181.793,239.341 108.575,383.55 -73.218,144.21 -240.538,206.297 -373.721,138.678 z"
   id="path227" />
			
				<linearGradient
   id="SVGID_00000009576306730108624650000009320435875344614820_"
   gradientUnits="userSpaceOnUse"
   x1="1173.3199"
   y1="2660.0581"
   x2="1024.7775"
   y2="3848.4009">
				<stop
   offset="0"
   style="stop-color:#444B8C"
   id="stop229" />
				<stop
   offset="0.9964"
   style="stop-color:#26264F"
   id="stop231" />
			</linearGradient>
			<path
   style="fill:url(#SVGID_00000009576306730108624650000009320435875344614820_)"
   d="m 1349.271,2847.929 c 41.85,-3.732 75.065,-42.189 74.189,-85.899 -0.876,-43.708 -35.513,-76.12 -77.363,-72.388 -2.188,0.195 -4.336,0.542 -6.472,0.921 -4.371,-21.663 -10.361,-42.82 -17.918,-63.3 1.925,-1.125 3.841,-2.29 5.712,-3.602 35.804,-25.084 80.101,-85.697 54.841,-119.269 -47.944,-63.72 -97.562,-36.139 -133.365,-11.055 -1.835,1.287 -3.561,2.674 -5.266,4.082 -14.143,-15.633 -29.653,-30.12 -46.435,-43.343 1.179,-1.935 2.335,-3.894 3.38,-5.95 10.975,-21.618 11.944,-45.45 4.695,-65.712 -34.583,60.869 -68.701,121.993 -102.207,183.449 106.249,77.857 140.075,231.288 73.663,362.094 -56.278,110.847 -168.149,173.087 -277.383,165.288 -4.873,12.637 -9.657,25.343 -14.875,37.857 -14.16,33.963 -30.245,67.226 -46.352,100.445 10.13,1.91 20.304,3.413 30.506,4.481 -0.13,2.21 -0.232,4.422 -0.188,6.662 0.876,43.709 27.414,80.846 103.261,76.823 41.957,-2.225 49.168,-46.622 48.291,-90.332 -0.047,-2.283 -0.236,-4.517 -0.462,-6.736 20.993,-5.983 41.609,-13.635 61.677,-22.888 0.953,1.95 1.944,3.887 3.077,5.767 21.684,35.99 96.907,51.28 132.713,26.194 35.806,-25.086 18.632,-81.046 -3.051,-117.036 -1.111,-1.843 -2.328,-3.567 -3.563,-5.269 15.855,-15.857 30.705,-33.076 44.426,-51.546 1.775,1.114 3.574,2.202 5.474,3.164 36.682,18.627 82.765,1.524 102.932,-38.194 20.165,-39.717 6.777,-87.015 -29.905,-105.638 -1.901,-0.965 -3.84,-1.775 -5.786,-2.551 6.816,-21.978 11.954,-44.129 15.399,-66.284 2.101,-0.01 4.211,-0.046 6.355,-0.235 z"
   id="path234" />
			
				<linearGradient
   id="SVGID_00000031925427501045326360000007862243982072028086_"
   gradientUnits="userSpaceOnUse"
   x1="1359.2614"
   y1="3296.6992"
   x2="-43.6073"
   y2="1519.7344">
				<stop
   offset="0"
   style="stop-color:#AA80F9"
   id="stop236" />
				<stop
   offset="0.9964"
   style="stop-color:#6165D7"
   id="stop238" />
			</linearGradient>
			<path
   style="fill:url(#SVGID_00000031925427501045326360000007862243982072028086_)"
   d="m 1299.726,3065.318 c 36.682,18.624 82.765,1.524 102.931,-38.195 20.166,-39.719 6.778,-87.015 -29.904,-105.639 -1.901,-0.965 -3.84,-1.775 -5.786,-2.551 6.815,-21.978 11.953,-44.127 15.4,-66.286 2.102,-0.01 4.212,-0.041 6.357,-0.231 41.85,-3.731 75.064,-42.187 74.188,-85.897 -0.875,-43.711 -35.513,-76.12 -77.362,-72.39 -2.188,0.196 -4.336,0.541 -6.473,0.921 -4.371,-21.661 -10.361,-42.821 -17.918,-63.299 1.926,-1.126 3.841,-2.29 5.712,-3.602 35.805,-25.083 47.252,-74.594 25.568,-110.583 -21.684,-35.988 -68.288,-44.826 -104.093,-19.742 -1.835,1.286 -3.561,2.674 -5.266,4.083 -14.142,-15.633 -29.652,-30.121 -46.434,-43.344 1.179,-1.934 2.334,-3.895 3.38,-5.952 20.166,-39.719 6.778,-87.015 -29.904,-105.638 -36.682,-18.624 -82.765,-1.524 -102.931,38.195 -1.045,2.057 -1.946,4.147 -2.812,6.24 -20.578,-5.745 -41.427,-9.718 -62.392,-11.91 0.13,-2.209 0.232,-4.42 0.188,-6.661 -0.877,-43.709 -35.513,-76.118 -77.365,-72.387 -41.85,3.73 -75.066,42.188 -74.189,85.896 0.046,2.285 0.237,4.518 0.463,6.737 -20.993,5.985 -41.609,13.635 -61.677,22.888 -0.954,-1.949 -1.943,-3.887 -3.076,-5.77 -21.684,-35.988 -68.289,-44.826 -104.094,-19.74 -35.806,25.086 -47.252,74.595 -25.568,110.582 1.111,1.844 2.328,3.569 3.563,5.27 -15.855,15.858 -30.706,33.076 -44.427,51.548 -1.774,-1.113 -3.574,-2.201 -5.474,-3.166 -36.681,-18.625 -82.765,-1.523 -102.931,38.195 -20.167,39.718 -6.777,87.015 29.904,105.638 1.901,0.966 3.841,1.776 5.786,2.552 -6.815,21.978 -11.954,44.127 -15.4,66.285 -2.103,0.01 -4.213,0.041 -6.356,0.231 -41.851,3.733 -75.065,42.188 -74.189,85.899 0.876,43.709 35.514,76.117 77.364,72.387 2.185,-0.195 4.335,-0.539 6.471,-0.92 4.371,21.662 10.361,42.821 17.917,63.301 -1.924,1.125 -3.84,2.289 -5.71,3.601 -35.805,25.084 -47.253,74.595 -25.568,110.583 21.684,35.988 68.288,44.826 104.092,19.743 1.834,-1.287 3.562,-2.675 5.266,-4.083 14.143,15.633 29.653,30.121 46.434,43.344 -1.179,1.935 -2.335,3.895 -3.38,5.952 -20.166,39.718 -6.777,87.014 29.904,105.639 36.681,18.624 82.765,1.523 102.931,-38.196 1.045,-2.057 1.945,-4.147 2.81,-6.24 20.578,5.746 41.427,9.718 62.394,11.91 -0.131,2.208 -0.232,4.421 -0.188,6.662 0.877,43.707 35.513,76.117 77.364,72.387 41.85,-3.731 75.066,-42.189 74.188,-85.897 -0.045,-2.284 -0.237,-4.518 -0.463,-6.737 20.993,-5.983 41.61,-13.635 61.677,-22.888 0.954,1.949 1.944,3.887 3.077,5.767 21.684,35.988 68.287,44.828 104.092,19.742 35.806,-25.086 47.252,-74.594 25.57,-110.584 -1.112,-1.842 -2.329,-3.566 -3.565,-5.267 15.856,-15.857 30.705,-33.076 44.428,-51.547 1.777,1.111 3.576,2.198 5.476,3.164 z m -457.269,5.802 C 709.275,3003.5 660.663,2831.78 733.882,2687.569 c 73.219,-144.209 240.539,-206.296 373.721,-138.677 133.182,67.619 181.793,239.34 108.575,383.55 -73.22,144.21 -240.539,206.297 -373.721,138.678 z"
   id="path241" />
		</g><g
   id="g266">
			
				<linearGradient
   id="SVGID_00000083082216438001595540000005455645628935742627_"
   gradientUnits="userSpaceOnUse"
   x1="666.22998"
   y1="1839.9012"
   x2="573.12872"
   y2="2584.7129">
				<stop
   offset="0"
   style="stop-color:#444B8C"
   id="stop245" />
				<stop
   offset="0.9964"
   style="stop-color:#26264F"
   id="stop247" />
			</linearGradient>
			<path
   style="fill:url(#SVGID_00000083082216438001595540000005455645628935742627_)"
   d="m 856.226,2108.03 c 22.991,11.673 51.875,0.955 64.514,-23.939 12.639,-24.894 4.248,-54.538 -18.743,-66.211 -1.191,-0.605 -2.406,-1.113 -3.626,-1.6 4.272,-13.775 7.492,-27.658 9.652,-41.546 1.318,0 2.641,-0.025 3.984,-0.146 26.23,-2.338 47.048,-26.441 46.499,-53.838 -0.549,-27.396 -22.258,-47.71 -48.489,-45.371 -1.372,0.123 -2.718,0.339 -4.057,0.578 -2.74,-13.577 -6.494,-26.839 -11.23,-39.674 1.207,-0.706 2.407,-1.436 3.58,-2.257 22.441,-15.722 29.616,-46.754 16.025,-69.309 -13.591,-22.556 -42.801,-28.095 -65.242,-12.374 -1.15,0.806 -2.232,1.676 -3.301,2.559 -8.864,-9.798 -18.585,-18.879 -29.103,-27.166 0.739,-1.213 1.463,-2.441 2.118,-3.73 12.639,-24.895 29.156,-52.088 5.985,-63.399 -53.601,-26.167 -76.603,-3.767 -89.243,21.127 -0.654,1.289 -1.219,2.599 -1.761,3.911 -12.897,-3.601 -25.965,-6.091 -39.106,-7.465 0.083,-1.384 0.146,-2.771 0.119,-4.175 -0.55,-27.395 7.579,-42.22 -18.75,-42.732 -57.415,-1.116 -76.788,23.804 -76.238,51.199 0.029,1.432 0.148,2.832 0.29,4.223 -13.158,3.75 -26.079,8.545 -38.657,14.345 -0.598,-1.222 -1.218,-2.436 -1.928,-3.616 -13.591,-22.556 -42.801,-28.095 -65.243,-12.372 -22.442,15.723 -29.616,46.753 -16.025,69.309 0.696,1.156 1.459,2.236 2.233,3.302 -9.938,9.939 -19.245,20.732 -27.845,32.309 -1.112,-0.698 -2.24,-1.38 -3.431,-1.984 -22.991,-11.673 -51.875,-0.955 -64.514,23.939 -12.639,24.894 -4.248,54.538 18.743,66.211 1.191,0.605 2.407,1.113 3.626,1.599 -4.271,13.775 -7.492,27.658 -9.652,41.546 -1.318,0 -2.64,0.026 -3.983,0.144 -26.231,2.34 -47.049,26.442 -46.5,53.839 0.549,27.396 22.259,47.708 48.489,45.37 1.37,-0.122 2.717,-0.338 4.056,-0.577 2.74,13.577 6.494,26.839 11.23,39.675 -1.206,0.706 -2.407,1.435 -3.58,2.257 -22.441,15.721 -29.616,46.753 -16.025,69.309 13.591,22.557 58.586,33.036 81.026,17.313 1.15,-0.806 -13.553,-6.616 -12.483,-7.499 8.864,9.799 18.585,18.879 29.103,27.167 -0.739,1.212 -1.463,2.441 -2.118,3.731 -12.639,24.894 -4.248,54.538 18.743,66.211 22.991,11.673 51.875,0.955 64.514,-23.939 0.655,-1.29 1.219,-2.599 1.761,-3.911 12.898,3.601 25.965,6.091 39.106,7.465 -0.082,1.384 -0.146,2.771 -0.118,4.175 0.549,27.395 22.258,47.708 48.489,45.37 26.23,-2.338 47.049,-26.442 46.499,-53.837 -0.029,-1.431 -0.148,-2.832 -0.29,-4.222 13.158,-3.75 26.08,-8.545 38.657,-14.345 0.597,1.222 1.218,2.437 1.928,3.615 13.591,22.556 42.8,28.097 65.242,12.374 22.442,-15.723 29.616,-46.753 16.026,-69.311 -0.696,-1.154 -1.459,-2.235 -2.234,-3.301 9.938,-9.939 19.245,-20.731 27.846,-32.308 1.113,0.695 2.241,1.377 3.432,1.982 z m -286.602,3.637 c -83.474,-42.382 -113.942,-150.01 -68.051,-240.396 45.891,-90.386 150.762,-129.301 234.236,-86.919 83.474,42.382 113.942,150.011 68.051,240.396 -45.891,90.386 -150.761,129.3 -234.236,86.919 z"
   id="path250" />
			
				<linearGradient
   id="SVGID_00000031184722384809049290000000440668511819258045_"
   gradientUnits="userSpaceOnUse"
   x1="801.72638"
   y1="1856.8385"
   x2="708.62488"
   y2="2601.6523">
				<stop
   offset="0"
   style="stop-color:#444B8C"
   id="stop252" />
				<stop
   offset="0.9964"
   style="stop-color:#26264F"
   id="stop254" />
			</linearGradient>
			<path
   style="fill:url(#SVGID_00000031184722384809049290000000440668511819258045_)"
   d="m 912.007,1974.589 c 26.23,-2.339 47.048,-26.442 46.499,-53.838 -0.549,-27.395 -22.258,-47.71 -48.489,-45.37 -1.371,0.122 -2.718,0.339 -4.057,0.577 -2.74,-13.577 -6.494,-26.838 -11.23,-39.674 1.207,-0.705 2.407,-1.436 3.58,-2.257 22.441,-15.722 50.205,-53.712 34.372,-74.754 -30.05,-39.938 -61.148,-22.651 -83.589,-6.929 -1.15,0.806 -2.232,1.676 -3.3,2.558 -8.865,-9.799 -18.585,-18.878 -29.104,-27.166 0.739,-1.213 1.463,-2.44 2.118,-3.729 6.879,-13.549 7.486,-28.487 2.943,-41.186 -21.675,38.151 -43.059,76.461 -64.06,114.98 66.593,48.798 87.794,144.963 46.169,226.948 -35.273,69.475 -105.39,108.485 -173.855,103.597 -3.054,7.921 -6.052,15.884 -9.323,23.728 -8.875,21.287 -18.957,42.135 -29.052,62.956 6.349,1.197 12.726,2.139 19.12,2.808 -0.082,1.385 -0.146,2.771 -0.118,4.176 0.549,27.395 17.182,50.672 64.721,48.15 26.297,-1.395 30.817,-29.221 30.267,-56.617 -0.029,-1.431 -0.148,-2.831 -0.29,-4.222 13.158,-3.75 26.079,-8.546 38.657,-14.346 0.597,1.222 1.218,2.436 1.929,3.615 13.591,22.558 60.738,32.141 83.18,16.418 22.442,-15.723 11.678,-50.797 -1.913,-73.354 -0.696,-1.155 -1.459,-2.236 -2.233,-3.302 9.938,-9.939 19.245,-20.731 27.845,-32.308 1.112,0.698 2.24,1.38 3.431,1.983 22.991,11.675 51.875,0.955 64.514,-23.939 12.639,-24.893 4.248,-54.538 -18.743,-66.211 -1.191,-0.605 -2.407,-1.113 -3.626,-1.599 4.272,-13.775 7.492,-27.659 9.652,-41.545 1.319,-0.01 2.641,-0.029 3.985,-0.148 z"
   id="path257" />
			
				<linearGradient
   id="SVGID_00000127759493511800169060000002326873156574589066_"
   gradientUnits="userSpaceOnUse"
   x1="918.26819"
   y1="2255.864"
   x2="38.996899"
   y2="1142.1215">
				<stop
   offset="0"
   style="stop-color:#AA80F9"
   id="stop259" />
				<stop
   offset="0.9964"
   style="stop-color:#6165D7"
   id="stop261" />
			</linearGradient>
			<path
   style="fill:url(#SVGID_00000127759493511800169060000002326873156574589066_)"
   d="m 880.954,2110.842 c 22.991,11.673 51.875,0.955 64.514,-23.939 12.639,-24.895 4.248,-54.538 -18.743,-66.211 -1.191,-0.605 -2.407,-1.113 -3.626,-1.599 4.272,-13.775 7.492,-27.657 9.652,-41.546 1.318,0 2.64,-0.025 3.984,-0.145 26.23,-2.339 47.048,-26.441 46.499,-53.838 -0.549,-27.397 -22.258,-47.71 -48.488,-45.371 -1.371,0.123 -2.718,0.339 -4.057,0.577 -2.74,-13.577 -6.494,-26.839 -11.23,-39.674 1.207,-0.706 2.407,-1.436 3.58,-2.258 22.441,-15.721 29.616,-46.753 16.025,-69.309 -13.591,-22.556 -42.801,-28.096 -65.242,-12.374 -1.15,0.806 -2.232,1.676 -3.301,2.559 -8.864,-9.798 -18.585,-18.879 -29.103,-27.166 0.739,-1.212 1.463,-2.441 2.118,-3.73 12.639,-24.894 4.248,-54.538 -18.743,-66.211 -22.991,-11.673 -51.875,-0.955 -64.514,23.939 -0.655,1.289 -1.22,2.599 -1.762,3.911 -12.897,-3.601 -25.965,-6.091 -39.105,-7.465 0.082,-1.385 0.145,-2.771 0.118,-4.175 -0.55,-27.395 -22.258,-47.708 -48.49,-45.37 -26.23,2.338 -47.049,26.442 -46.499,53.837 0.029,1.432 0.148,2.832 0.29,4.222 -13.158,3.751 -26.079,8.546 -38.657,14.346 -0.598,-1.221 -1.218,-2.436 -1.928,-3.616 -13.591,-22.556 -42.801,-28.095 -65.242,-12.372 -22.442,15.723 -29.616,46.754 -16.025,69.309 0.696,1.156 1.459,2.237 2.233,3.303 -9.938,9.939 -19.245,20.731 -27.845,32.308 -1.112,-0.698 -2.24,-1.38 -3.431,-1.984 -22.991,-11.673 -51.875,-0.955 -64.514,23.939 -12.64,24.894 -4.248,54.538 18.743,66.211 1.191,0.605 2.407,1.113 3.627,1.6 -4.272,13.775 -7.493,27.657 -9.652,41.545 -1.318,0 -2.641,0.026 -3.984,0.145 -26.231,2.34 -47.049,26.442 -46.499,53.839 0.549,27.396 22.259,47.707 48.489,45.37 1.37,-0.122 2.717,-0.338 4.056,-0.576 2.74,13.577 6.494,26.839 11.23,39.675 -1.206,0.705 -2.407,1.435 -3.579,2.257 -22.442,15.722 -29.616,46.754 -16.025,69.309 13.591,22.556 42.801,28.096 65.242,12.374 1.15,-0.807 2.233,-1.676 3.301,-2.559 8.864,9.799 18.585,18.879 29.103,27.166 -0.739,1.213 -1.464,2.441 -2.118,3.73 -12.639,24.894 -4.248,54.538 18.743,66.211 22.99,11.673 51.875,0.955 64.514,-23.94 0.655,-1.29 1.219,-2.599 1.761,-3.911 12.898,3.601 25.965,6.091 39.106,7.465 -0.082,1.384 -0.146,2.771 -0.118,4.175 0.55,27.394 22.258,47.708 48.489,45.37 26.23,-2.338 47.049,-26.443 46.499,-53.837 -0.028,-1.432 -0.148,-2.832 -0.29,-4.222 13.158,-3.75 26.08,-8.546 38.657,-14.345 0.598,1.221 1.218,2.436 1.929,3.614 13.591,22.556 42.8,28.097 65.242,12.374 22.442,-15.723 29.616,-46.753 16.026,-69.311 -0.697,-1.154 -1.459,-2.235 -2.234,-3.301 9.938,-9.939 19.245,-20.731 27.846,-32.308 1.109,0.696 2.237,1.378 3.428,1.983 z m -286.602,3.636 c -83.474,-42.382 -113.942,-150.01 -68.051,-240.397 45.892,-90.385 150.762,-129.3 234.236,-86.918 83.474,42.382 113.942,150.01 68.051,240.396 -45.891,90.387 -150.761,129.301 -234.236,86.919 z"
   id="path264" />
		</g>
</svg>
